<mxfile host="app.diagrams.net" modified="2021-12-15T14:52:31.140Z" agent="5.0 (Windows NT 10.0; Win64; x64) AppleWebKit/537.36 (KHTML, like Gecko) Chrome/96.0.4664.93 Safari/537.36" etag="MNr7-s7iFfiNa2a6E0MC" version="15.9.6" type="github">
  <diagram name="Page-1" id="e7e014a7-5840-1c2e-5031-d8a46d1fe8dd">
    <mxGraphModel dx="780" dy="748" grid="1" gridSize="10" guides="1" tooltips="1" connect="1" arrows="1" fold="1" page="1" pageScale="1" pageWidth="1169" pageHeight="826" background="none" math="0" shadow="0">
      <root>
        <mxCell id="0" />
        <mxCell id="1" parent="0" />
        <mxCell id="4u5zSsLyWunMOwIYYDjF-41" value="SinhVien" style="swimlane;fontStyle=1;align=center;verticalAlign=top;childLayout=stackLayout;horizontal=1;startSize=26;horizontalStack=0;resizeParent=1;resizeParentMax=0;resizeLast=0;collapsible=1;marginBottom=0;" vertex="1" parent="1">
          <mxGeometry x="500" y="250" width="260" height="280" as="geometry" />
        </mxCell>
        <mxCell id="4u5zSsLyWunMOwIYYDjF-42" value="+ name :String&#xa;+ dOB: Date&#xa;+ Sex : String&#xa;+ address: String&#xa;+ studentID: String&#xa;+ major: String&#xa;+ sub_1: double ( điểm môn học )&#xa;+ sub_2: double&#xa;+ sub_3: double" style="text;strokeColor=none;fillColor=none;align=left;verticalAlign=top;spacingLeft=4;spacingRight=4;overflow=hidden;rotatable=0;points=[[0,0.5],[1,0.5]];portConstraint=eastwest;" vertex="1" parent="4u5zSsLyWunMOwIYYDjF-41">
          <mxGeometry y="26" width="260" height="174" as="geometry" />
        </mxCell>
        <mxCell id="4u5zSsLyWunMOwIYYDjF-43" value="" style="line;strokeWidth=1;fillColor=none;align=left;verticalAlign=middle;spacingTop=-1;spacingLeft=3;spacingRight=3;rotatable=0;labelPosition=right;points=[];portConstraint=eastwest;" vertex="1" parent="4u5zSsLyWunMOwIYYDjF-41">
          <mxGeometry y="200" width="260" height="8" as="geometry" />
        </mxCell>
        <mxCell id="4u5zSsLyWunMOwIYYDjF-44" value="+ getAVG(): double&#xa;+ ranking(ArrayList&lt;SinhVien&gt; svRank): void" style="text;strokeColor=none;fillColor=none;align=left;verticalAlign=top;spacingLeft=4;spacingRight=4;overflow=hidden;rotatable=0;points=[[0,0.5],[1,0.5]];portConstraint=eastwest;" vertex="1" parent="4u5zSsLyWunMOwIYYDjF-41">
          <mxGeometry y="208" width="260" height="72" as="geometry" />
        </mxCell>
      </root>
    </mxGraphModel>
  </diagram>
</mxfile>
